# xmcd
#
# Track frame offsets:
#	150
#	26226
#	43788
#	55965
#	76429
#	96015
#	114576
#	132300
#	146197
#	166668
#
# Disc length: 2519 seconds
#
# Revision: 0
# Processed by: cddbd v1.4PL0 Copyright (c) Steve Scherf et al.
# Submitted via: OrangeCD 4.1
#
DISCID=8909d50a
DTITLE=Don Francisco - The Traveler
DYEAR=1900
DGENRE=
TTITLE0=Too Small a Price - Joy
TTITLE1=Since I Met Him I Can See
TTITLE2=The Lord and I Together
TTITLE3=Beautiful to Me
TTITLE4=If You Ain't Gonna Sing the Gospel
TTITLE5=Messengers From Heaven
TTITLE6=The Package
TTITLE7=You Can't Take it With You
TTITLE8=Give Your Heart a Home
TTITLE9=The Traveler - Joy
EXTD=
EXTT0=
EXTT1=
EXTT2=
EXTT3=
EXTT4=
EXTT5=
EXTT6=
EXTT7=
EXTT8=
EXTT9=
PLAYORDER=
